<svg width="235" height="235" viewBox="0 0 235 235" fill="none" xmlns="http://www.w3.org/2000/svg">
<rect width="235" height="235" fill="#1F1B16"/>
<path d="M120.97 162.65C114.903 162.65 109.227 161.437 103.94 159.01C98.6533 156.583 93.9733 153.247 89.9 149C85.9133 144.667 82.7933 139.64 80.54 133.92C78.2867 128.2 77.16 122.003 77.16 115.33C77.16 109.003 78.2867 103.067 80.54 97.52C82.7933 91.8867 85.9567 86.9467 90.03 82.7C94.1033 78.4533 98.87 75.1167 104.33 72.69C109.79 70.2633 115.727 69.05 122.14 69.05C130.72 69.05 138.13 70.9133 144.37 74.64C150.61 78.28 155.29 83.1333 158.41 89.2L145.02 99.08C142.68 94.5733 139.387 91.1067 135.14 88.68C130.98 86.1667 126.43 84.91 121.49 84.91C116.29 84.91 111.697 86.34 107.71 89.2C103.81 92.06 100.733 95.83 98.48 100.51C96.3133 105.19 95.23 110.303 95.23 115.85C95.23 121.657 96.4 126.9 98.74 131.58C101.08 136.26 104.287 139.987 108.36 142.76C112.52 145.447 117.243 146.79 122.53 146.79C131.457 146.79 139.517 142.587 146.71 134.18V127.68H128.12V114.55H161.53V162H146.71V151.6C139.257 158.967 130.677 162.65 120.97 162.65Z" fill="#FFF4CB"/>
<line x1="68" y1="121.1" x2="108" y2="121.1" stroke="#FFF4CB" stroke-width="13"/>
</svg>
