<svg width="433" height="433" viewBox="0 0 433 433" fill="none" xmlns="http://www.w3.org/2000/svg">
<circle cx="216.5" cy="216.5" r="216.5" fill="black"/>
<path d="M158.25 236.705C158.25 240.471 157.531 244.005 156.092 247.306C154.653 250.606 152.685 253.505 150.188 256.002C147.734 258.456 144.856 260.403 141.556 261.842C138.255 263.281 134.721 264 130.955 264H85.4424V172.975H130.955C134.721 172.975 138.255 173.694 141.556 175.133C144.856 176.572 147.734 178.539 150.188 181.036C152.685 183.491 154.653 186.368 156.092 189.669C157.531 192.97 158.25 196.503 158.25 200.27C158.25 201.962 158.017 203.697 157.552 205.475C157.086 207.252 156.43 208.966 155.584 210.616C154.738 212.267 153.722 213.769 152.537 215.123C151.352 216.477 150.04 217.599 148.602 218.487C150.083 219.291 151.416 220.392 152.601 221.788C153.785 223.142 154.801 224.645 155.647 226.295C156.494 227.945 157.129 229.68 157.552 231.5C158.017 233.277 158.25 235.012 158.25 236.705ZM103.66 245.782H130.955C132.225 245.782 133.41 245.549 134.51 245.084C135.61 244.618 136.562 243.984 137.366 243.18C138.213 242.333 138.868 241.36 139.334 240.26C139.799 239.16 140.032 237.975 140.032 236.705C140.032 235.436 139.799 234.251 139.334 233.15C138.868 232.05 138.213 231.098 137.366 230.294C136.562 229.448 135.61 228.792 134.51 228.326C133.41 227.861 132.225 227.628 130.955 227.628H103.66V245.782ZM103.66 209.41H130.955C132.225 209.41 133.41 209.177 134.51 208.712C135.61 208.246 136.562 207.612 137.366 206.808C138.213 205.961 138.868 204.988 139.334 203.888C139.799 202.745 140.032 201.539 140.032 200.27C140.032 199 139.799 197.815 139.334 196.715C138.868 195.615 138.213 194.662 137.366 193.858C136.562 193.012 135.61 192.356 134.51 191.891C133.41 191.425 132.225 191.192 130.955 191.192H103.66V209.41ZM179.692 200.27C179.692 196.503 180.412 192.97 181.851 189.669C183.289 186.368 185.236 183.491 187.69 181.036C190.187 178.539 193.086 176.572 196.387 175.133C199.688 173.694 203.221 172.975 206.987 172.975H248.755V191.192H206.987C205.718 191.192 204.533 191.425 203.433 191.891C202.332 192.356 201.359 193.012 200.513 193.858C199.709 194.662 199.074 195.615 198.608 196.715C198.143 197.815 197.91 199 197.91 200.27C197.91 201.539 198.143 202.745 198.608 203.888C199.074 204.988 199.709 205.961 200.513 206.808C201.359 207.612 202.332 208.246 203.433 208.712C204.533 209.177 205.718 209.41 206.987 209.41H225.205C228.971 209.41 232.505 210.13 235.806 211.568C239.149 212.965 242.048 214.911 244.502 217.408C246.999 219.863 248.945 222.761 250.342 226.104C251.781 229.405 252.5 232.939 252.5 236.705C252.5 240.471 251.781 244.005 250.342 247.306C248.945 250.606 246.999 253.505 244.502 256.002C242.048 258.456 239.149 260.403 235.806 261.842C232.505 263.281 228.971 264 225.205 264H184.771V245.782H225.205C226.475 245.782 227.66 245.549 228.76 245.084C229.86 244.618 230.812 243.984 231.616 243.18C232.463 242.333 233.118 241.36 233.584 240.26C234.049 239.16 234.282 237.975 234.282 236.705C234.282 235.436 234.049 234.251 233.584 233.15C233.118 232.05 232.463 231.098 231.616 230.294C230.812 229.448 229.86 228.792 228.76 228.326C227.66 227.861 226.475 227.628 225.205 227.628H206.987C203.221 227.628 199.688 226.909 196.387 225.47C193.086 224.031 190.187 222.084 187.69 219.63C185.236 217.133 183.289 214.234 181.851 210.934C180.412 207.59 179.692 204.036 179.692 200.27ZM349.924 254.796C345.692 258.393 340.974 261.165 335.769 263.111C330.563 265.016 325.147 265.968 319.519 265.968C315.202 265.968 311.034 265.396 307.014 264.254C303.036 263.154 299.312 261.588 295.842 259.557C292.372 257.483 289.198 255.029 286.32 252.193C283.443 249.316 280.988 246.142 278.957 242.672C276.926 239.16 275.339 235.393 274.196 231.373C273.096 227.353 272.546 223.185 272.546 218.868C272.546 214.552 273.096 210.405 274.196 206.427C275.339 202.449 276.926 198.725 278.957 195.255C280.988 191.743 283.443 188.569 286.32 185.733C289.198 182.856 292.372 180.401 295.842 178.37C299.312 176.339 303.036 174.773 307.014 173.673C311.034 172.53 315.202 171.959 319.519 171.959C325.147 171.959 330.563 172.932 335.769 174.879C340.974 176.783 345.692 179.534 349.924 183.131L340.402 199C337.652 196.207 334.478 194.028 330.881 192.462C327.284 190.854 323.496 190.05 319.519 190.05C315.541 190.05 311.796 190.812 308.283 192.335C304.813 193.858 301.766 195.932 299.143 198.556C296.519 201.137 294.445 204.184 292.922 207.696C291.398 211.166 290.637 214.89 290.637 218.868C290.637 222.888 291.398 226.655 292.922 230.167C294.445 233.679 296.519 236.747 299.143 239.371C301.766 241.995 304.813 244.068 308.283 245.592C311.796 247.115 315.541 247.877 319.519 247.877C321.804 247.877 324.025 247.602 326.184 247.052C328.342 246.502 330.394 245.74 332.341 244.767V218.868H349.924V254.796Z" fill="#FFF5BE"/>
</svg>
