<svg width="571" height="571" viewBox="0 0 571 571" fill="none" xmlns="http://www.w3.org/2000/svg">
<circle cx="285.5" cy="285.5" r="285.5" fill="black"/>
<path d="M181.25 305.705C181.25 309.471 180.531 313.005 179.092 316.306C177.653 319.606 175.685 322.505 173.188 325.002C170.734 327.456 167.856 329.403 164.556 330.842C161.255 332.281 157.721 333 153.955 333H108.442V241.975H153.955C157.721 241.975 161.255 242.694 164.556 244.133C167.856 245.572 170.734 247.539 173.188 250.036C175.685 252.491 177.653 255.368 179.092 258.669C180.531 261.97 181.25 265.503 181.25 269.27C181.25 270.962 181.017 272.697 180.552 274.475C180.086 276.252 179.43 277.966 178.584 279.616C177.738 281.267 176.722 282.769 175.537 284.123C174.352 285.477 173.04 286.599 171.602 287.487C173.083 288.291 174.416 289.392 175.601 290.788C176.785 292.142 177.801 293.645 178.647 295.295C179.494 296.945 180.129 298.68 180.552 300.5C181.017 302.277 181.25 304.012 181.25 305.705ZM126.66 314.782H153.955C155.225 314.782 156.41 314.549 157.51 314.084C158.61 313.618 159.562 312.984 160.366 312.18C161.213 311.333 161.868 310.36 162.334 309.26C162.799 308.16 163.032 306.975 163.032 305.705C163.032 304.436 162.799 303.251 162.334 302.15C161.868 301.05 161.213 300.098 160.366 299.294C159.562 298.448 158.61 297.792 157.51 297.326C156.41 296.861 155.225 296.628 153.955 296.628H126.66V314.782ZM126.66 278.41H153.955C155.225 278.41 156.41 278.177 157.51 277.712C158.61 277.246 159.562 276.612 160.366 275.808C161.213 274.961 161.868 273.988 162.334 272.888C162.799 271.745 163.032 270.539 163.032 269.27C163.032 268 162.799 266.815 162.334 265.715C161.868 264.615 161.213 263.662 160.366 262.858C159.562 262.012 158.61 261.356 157.51 260.891C156.41 260.425 155.225 260.192 153.955 260.192H126.66V278.41ZM202.692 269.27C202.692 265.503 203.412 261.97 204.851 258.669C206.289 255.368 208.236 252.491 210.69 250.036C213.187 247.539 216.086 245.572 219.387 244.133C222.688 242.694 226.221 241.975 229.987 241.975H271.755V260.192H229.987C228.718 260.192 227.533 260.425 226.433 260.891C225.332 261.356 224.359 262.012 223.513 262.858C222.709 263.662 222.074 264.615 221.608 265.715C221.143 266.815 220.91 268 220.91 269.27C220.91 270.539 221.143 271.745 221.608 272.888C222.074 273.988 222.709 274.961 223.513 275.808C224.359 276.612 225.332 277.246 226.433 277.712C227.533 278.177 228.718 278.41 229.987 278.41H248.205C251.971 278.41 255.505 279.13 258.806 280.568C262.149 281.965 265.048 283.911 267.502 286.408C269.999 288.863 271.945 291.761 273.342 295.104C274.781 298.405 275.5 301.939 275.5 305.705C275.5 309.471 274.781 313.005 273.342 316.306C271.945 319.606 269.999 322.505 267.502 325.002C265.048 327.456 262.149 329.403 258.806 330.842C255.505 332.281 251.971 333 248.205 333H207.771V314.782H248.205C249.475 314.782 250.66 314.549 251.76 314.084C252.86 313.618 253.812 312.984 254.616 312.18C255.463 311.333 256.118 310.36 256.584 309.26C257.049 308.16 257.282 306.975 257.282 305.705C257.282 304.436 257.049 303.251 256.584 302.15C256.118 301.05 255.463 300.098 254.616 299.294C253.812 298.448 252.86 297.792 251.76 297.326C250.66 296.861 249.475 296.628 248.205 296.628H229.987C226.221 296.628 222.688 295.909 219.387 294.47C216.086 293.031 213.187 291.084 210.69 288.63C208.236 286.133 206.289 283.234 204.851 279.934C203.412 276.59 202.692 273.036 202.692 269.27ZM372.924 323.796C368.692 327.393 363.974 330.165 358.769 332.111C353.563 334.016 348.147 334.968 342.519 334.968C338.202 334.968 334.034 334.396 330.014 333.254C326.036 332.154 322.312 330.588 318.842 328.557C315.372 326.483 312.198 324.029 309.32 321.193C306.443 318.316 303.988 315.142 301.957 311.672C299.926 308.16 298.339 304.393 297.196 300.373C296.096 296.353 295.546 292.185 295.546 287.868C295.546 283.552 296.096 279.405 297.196 275.427C298.339 271.449 299.926 267.725 301.957 264.255C303.988 260.743 306.443 257.569 309.32 254.733C312.198 251.856 315.372 249.401 318.842 247.37C322.312 245.339 326.036 243.773 330.014 242.673C334.034 241.53 338.202 240.959 342.519 240.959C348.147 240.959 353.563 241.932 358.769 243.879C363.974 245.783 368.692 248.534 372.924 252.131L363.402 268C360.652 265.207 357.478 263.028 353.881 261.462C350.284 259.854 346.496 259.05 342.519 259.05C338.541 259.05 334.796 259.812 331.283 261.335C327.813 262.858 324.766 264.932 322.143 267.556C319.519 270.137 317.445 273.184 315.922 276.696C314.398 280.166 313.637 283.89 313.637 287.868C313.637 291.888 314.398 295.655 315.922 299.167C317.445 302.679 319.519 305.747 322.143 308.371C324.766 310.995 327.813 313.068 331.283 314.592C334.796 316.115 338.541 316.877 342.519 316.877C344.804 316.877 347.025 316.602 349.184 316.052C351.342 315.502 353.394 314.74 355.341 313.767V287.868H372.924V323.796ZM394.62 269.27C394.62 265.503 395.34 261.97 396.778 258.669C398.217 255.368 400.164 252.491 402.618 250.036C405.115 247.539 408.014 245.572 411.314 244.133C414.615 242.694 418.149 241.975 421.915 241.975H463.683V260.192H421.915C420.646 260.192 419.461 260.425 418.36 260.891C417.26 261.356 416.287 262.012 415.44 262.858C414.636 263.662 414.002 264.615 413.536 265.715C413.071 266.815 412.838 268 412.838 269.27C412.838 270.539 413.071 271.745 413.536 272.888C414.002 273.988 414.636 274.961 415.44 275.808C416.287 276.612 417.26 277.246 418.36 277.712C419.461 278.177 420.646 278.41 421.915 278.41H440.133C443.899 278.41 447.433 279.13 450.733 280.568C454.076 281.965 456.975 283.911 459.43 286.408C461.926 288.863 463.873 291.761 465.27 295.104C466.708 298.405 467.428 301.939 467.428 305.705C467.428 309.471 466.708 313.005 465.27 316.306C463.873 319.606 461.926 322.505 459.43 325.002C456.975 327.456 454.076 329.403 450.733 330.842C447.433 332.281 443.899 333 440.133 333H399.698V314.782H440.133C441.402 314.782 442.587 314.549 443.688 314.084C444.788 313.618 445.74 312.984 446.544 312.18C447.39 311.333 448.046 310.36 448.512 309.26C448.977 308.16 449.21 306.975 449.21 305.705C449.21 304.436 448.977 303.251 448.512 302.15C448.046 301.05 447.39 300.098 446.544 299.294C445.74 298.448 444.788 297.792 443.688 297.326C442.587 296.861 441.402 296.628 440.133 296.628H421.915C418.149 296.628 414.615 295.909 411.314 294.47C408.014 293.031 405.115 291.084 402.618 288.63C400.164 286.133 398.217 283.234 396.778 279.934C395.34 276.59 394.62 273.036 394.62 269.27Z" fill="#A9DAFF"/>
</svg>
