<svg width="571" height="571" viewBox="0 0 571 571" fill="none" xmlns="http://www.w3.org/2000/svg">
<circle cx="285.5" cy="285.5" r="285.5" fill="black"/>
<path d="M177.25 305.705C177.25 309.471 176.531 313.005 175.092 316.306C173.653 319.606 171.685 322.505 169.188 325.002C166.734 327.456 163.856 329.403 160.556 330.842C157.255 332.281 153.721 333 149.955 333H104.442V241.975H149.955C153.721 241.975 157.255 242.694 160.556 244.133C163.856 245.572 166.734 247.539 169.188 250.036C171.685 252.491 173.653 255.368 175.092 258.669C176.531 261.97 177.25 265.503 177.25 269.27C177.25 270.962 177.017 272.697 176.552 274.475C176.086 276.252 175.43 277.966 174.584 279.616C173.738 281.267 172.722 282.769 171.537 284.123C170.352 285.477 169.04 286.599 167.602 287.487C169.083 288.291 170.416 289.392 171.601 290.788C172.785 292.142 173.801 293.645 174.647 295.295C175.494 296.945 176.129 298.68 176.552 300.5C177.017 302.277 177.25 304.012 177.25 305.705ZM122.66 314.782H149.955C151.225 314.782 152.41 314.549 153.51 314.084C154.61 313.618 155.562 312.984 156.366 312.18C157.213 311.333 157.868 310.36 158.334 309.26C158.799 308.16 159.032 306.975 159.032 305.705C159.032 304.436 158.799 303.251 158.334 302.15C157.868 301.05 157.213 300.098 156.366 299.294C155.562 298.448 154.61 297.792 153.51 297.326C152.41 296.861 151.225 296.628 149.955 296.628H122.66V314.782ZM122.66 278.41H149.955C151.225 278.41 152.41 278.177 153.51 277.712C154.61 277.246 155.562 276.612 156.366 275.808C157.213 274.961 157.868 273.988 158.334 272.888C158.799 271.745 159.032 270.539 159.032 269.27C159.032 268 158.799 266.815 158.334 265.715C157.868 264.615 157.213 263.662 156.366 262.858C155.562 262.012 154.61 261.356 153.51 260.891C152.41 260.425 151.225 260.192 149.955 260.192H122.66V278.41ZM198.692 269.27C198.692 265.503 199.412 261.97 200.851 258.669C202.289 255.368 204.236 252.491 206.69 250.036C209.187 247.539 212.086 245.572 215.387 244.133C218.688 242.694 222.221 241.975 225.987 241.975H267.755V260.192H225.987C224.718 260.192 223.533 260.425 222.433 260.891C221.332 261.356 220.359 262.012 219.513 262.858C218.709 263.662 218.074 264.615 217.608 265.715C217.143 266.815 216.91 268 216.91 269.27C216.91 270.539 217.143 271.745 217.608 272.888C218.074 273.988 218.709 274.961 219.513 275.808C220.359 276.612 221.332 277.246 222.433 277.712C223.533 278.177 224.718 278.41 225.987 278.41H244.205C247.971 278.41 251.505 279.13 254.806 280.568C258.149 281.965 261.048 283.911 263.502 286.408C265.999 288.863 267.945 291.761 269.342 295.104C270.781 298.405 271.5 301.939 271.5 305.705C271.5 309.471 270.781 313.005 269.342 316.306C267.945 319.606 265.999 322.505 263.502 325.002C261.048 327.456 258.149 329.403 254.806 330.842C251.505 332.281 247.971 333 244.205 333H203.771V314.782H244.205C245.475 314.782 246.66 314.549 247.76 314.084C248.86 313.618 249.812 312.984 250.616 312.18C251.463 311.333 252.118 310.36 252.584 309.26C253.049 308.16 253.282 306.975 253.282 305.705C253.282 304.436 253.049 303.251 252.584 302.15C252.118 301.05 251.463 300.098 250.616 299.294C249.812 298.448 248.86 297.792 247.76 297.326C246.66 296.861 245.475 296.628 244.205 296.628H225.987C222.221 296.628 218.688 295.909 215.387 294.47C212.086 293.031 209.187 291.084 206.69 288.63C204.236 286.133 202.289 283.234 200.851 279.934C199.412 276.59 198.692 273.036 198.692 269.27ZM368.924 323.796C364.692 327.393 359.974 330.165 354.769 332.111C349.563 334.016 344.147 334.968 338.519 334.968C334.202 334.968 330.034 334.396 326.014 333.254C322.036 332.154 318.312 330.588 314.842 328.557C311.372 326.483 308.198 324.029 305.32 321.193C302.443 318.316 299.988 315.142 297.957 311.672C295.926 308.16 294.339 304.393 293.196 300.373C292.096 296.353 291.546 292.185 291.546 287.868C291.546 283.552 292.096 279.405 293.196 275.427C294.339 271.449 295.926 267.725 297.957 264.255C299.988 260.743 302.443 257.569 305.32 254.733C308.198 251.856 311.372 249.401 314.842 247.37C318.312 245.339 322.036 243.773 326.014 242.673C330.034 241.53 334.202 240.959 338.519 240.959C344.147 240.959 349.563 241.932 354.769 243.879C359.974 245.783 364.692 248.534 368.924 252.131L359.402 268C356.652 265.207 353.478 263.028 349.881 261.462C346.284 259.854 342.496 259.05 338.519 259.05C334.541 259.05 330.796 259.812 327.283 261.335C323.813 262.858 320.766 264.932 318.143 267.556C315.519 270.137 313.445 273.184 311.922 276.696C310.398 280.166 309.637 283.89 309.637 287.868C309.637 291.888 310.398 295.655 311.922 299.167C313.445 302.679 315.519 305.747 318.143 308.371C320.766 310.995 323.813 313.068 327.283 314.592C330.796 316.115 334.541 316.877 338.519 316.877C340.804 316.877 343.025 316.602 345.184 316.052C347.342 315.502 349.394 314.74 351.341 313.767V287.868H368.924V323.796ZM468.76 305.705C468.76 309.471 468.04 313.005 466.602 316.306C465.163 319.606 463.195 322.505 460.698 325.002C458.244 327.456 455.366 329.403 452.065 330.842C448.765 332.281 445.231 333 441.465 333H395.952V241.975H441.465C445.231 241.975 448.765 242.694 452.065 244.133C455.366 245.572 458.244 247.539 460.698 250.036C463.195 252.491 465.163 255.368 466.602 258.669C468.04 261.97 468.76 265.503 468.76 269.27C468.76 270.962 468.527 272.697 468.062 274.475C467.596 276.252 466.94 277.966 466.094 279.616C465.247 281.267 464.232 282.769 463.047 284.123C461.862 285.477 460.55 286.599 459.111 287.487C460.592 288.291 461.925 289.392 463.11 290.788C464.295 292.142 465.311 293.645 466.157 295.295C467.004 296.945 467.638 298.68 468.062 300.5C468.527 302.277 468.76 304.012 468.76 305.705ZM414.17 314.782H441.465C442.734 314.782 443.919 314.549 445.02 314.084C446.12 313.618 447.072 312.984 447.876 312.18C448.722 311.333 449.378 310.36 449.844 309.26C450.309 308.16 450.542 306.975 450.542 305.705C450.542 304.436 450.309 303.251 449.844 302.15C449.378 301.05 448.722 300.098 447.876 299.294C447.072 298.448 446.12 297.792 445.02 297.326C443.919 296.861 442.734 296.628 441.465 296.628H414.17V314.782ZM414.17 278.41H441.465C442.734 278.41 443.919 278.177 445.02 277.712C446.12 277.246 447.072 276.612 447.876 275.808C448.722 274.961 449.378 273.988 449.844 272.888C450.309 271.745 450.542 270.539 450.542 269.27C450.542 268 450.309 266.815 449.844 265.715C449.378 264.615 448.722 263.662 447.876 262.858C447.072 262.012 446.12 261.356 445.02 260.891C443.919 260.425 442.734 260.192 441.465 260.192H414.17V278.41Z" fill="#D2FFC5"/>
</svg>
