<svg xmlns="http://www.w3.org/2000/svg" data-v-fde0c5aa="" class="iconAbove">
  <!---->
  <defs data-v-fde0c5aa="">
    <linearGradient data-v-fde0c5aa="" gradientTransform="rotate(25)" id="b3b2bb69-69b4-4893-8cf5-6a7e5bef0c48" x1="0%" y1="0%" x2="100%" y2="0%">
      <stop data-v-fde0c5aa="" offset="0%" stop-color="#8E42D3" stop-opacity="1" />
      <stop data-v-fde0c5aa="" offset="100%" stop-color="#D46975" stop-opacity="1" />
    </linearGradient>
  </defs>
  <g data-v-fde0c5aa="" id="df8fef66-dc99-4c74-ad86-a702c7ed076f" stroke="none" fill="url(#b3b2bb69-69b4-4893-8cf5-6a7e5bef0c48)" transform="matrix(1.1416169038401736,0,0,1.1416169038401736,92.70068356925805,65.27770055502046)">
    <path d="M87.75 47a8.55 8.55 0 0 0-3.26-8.06c1.19-5.43-3.21-12.2-8-14.33-12.1-7.37-28.43-8.18-42.26-6.61a22.19 22.19 0 0 0-18.49 17 10.38 10.38 0 0 0 0 4.17c-.23 0-5.06 6.88-2.41 9.65.07.07 1.19.61 2.19 1.06A14.09 14.09 0 0 0 16.76 56c-2.17 2.16-5.18 7.61-2.37 9.88a2.67 2.67 0 0 0 2.05.36C15.67 70.73 19 75.63 23 77.49c8 3.74 18.24 4.83 27 5.09 7.76.23 17.72.16 25.06-2.76 3.67-1.46 8.92-5.83 8.7-10.25a4.06 4.06 0 0 0 1.07-2.39c-.08-2-1.07-1.28 0-3.5.77-1.63 2.5-2.08 1.71-4.32a2.57 2.57 0 0 0-2.33-1.89c.48-1.56-.15-5.92-.32-6 1.85-.9 3.48-2.02 3.86-4.47zM32.11 20.64c6.27-1.55 14-.9 20.42-.52 8 .47 15.71 2.14 22.66 6.29a1.21 1.21 0 0 0 .22.13 12.08 12.08 0 0 1 6.63 9 9.15 9.15 0 0 1-.44 3.55c-.83 1.56-2.46 2.68-4.26 3.76-2.34 1.42-5.14 2.08-7.64 3.24a36.11 36.11 0 0 1-10.5 2.85c-12.91 1.76-28 3.35-38.52-5.74-8.68-7.49 3.53-20.61 11.43-22.56zM70 78.75a98.85 98.85 0 0 1-18.27 1.62c-7.41-.06-35.26-1.12-33.16-13.52 0-.17 1.45.37 2 1.32a18.28 18.28 0 0 0 .16 2.3c.49 1.76 1.29 2.71 3.2 2.92a7.45 7.45 0 0 0 2.07-.24 7.87 7.87 0 0 1 4.14-.88q1.13 1 2.24 1.93a5.1 5.1 0 0 0 4.08 1.16c1.33-.23 2.2-1.35 3.42-1.75 4.13-1.39 4.74 1.14 7.79 1.56s4.27-1.94 6.89-2.27 3.84 2.89 6.4 2.25c1-.26 1.14-1.17 1.94-1.62 3.12-1.76 3.72-.25 6.39.08a4.21 4.21 0 0 0 3.76-1c.76-.74.82-2 1.5-2.73 1.77-1.9 3.27-.41 5.25-.06a13.35 13.35 0 0 0 1.62.21C81.27 75 73.86 78.06 70 78.75zM82.19 66.6c-.55 1.36-2.44.75-3.35.63-1.61-.21-3-1.31-4.62-.45-1.23.65-1.27 1.93-2.07 2.95-2.24 2.86-6.66-.35-9.93 1.26-1.15.56-.64 1.83-2.65 1.6-.82-.09-1.77-1.5-2.6-1.81a5 5 0 0 0-3.5.16c-.64.21-1.18.65-1.81.88-2.49.89-4.49.21-6.94-.42-1.48-.38-2.47-.91-4-.55A20.31 20.31 0 0 0 38.25 72c-2.28.84-4.05.13-5.89-.84-1.33-.71-1.91-1.51-3.49-1.47-2.26.07-4.57 3-6-.9-.41-1.1.08-2.39-.74-3.4C21 64 19.75 64.37 18.28 64c-2-.45-2.7.07-2.25-2.57A7.54 7.54 0 0 1 17.94 58c6.4 8.91 23.84 9.16 33.59 9.29 7.1.1 25.93.35 31.44-7.47 1.37-.25-1.28 4.51-1.3 4.86s.61 1.7.52 1.92zM17.84 51.43c.47.74.84 1.6 1.33 2.25a5.77 5.77 0 0 0 3.62 2.65c3.66.76 5.72-2.18 9.78-.21 2 1 3.12 2.29 5.47 2.38a12.6 12.6 0 0 0 3.7-.74c3-.84 2.82-.6 6.94.95 1.66.62 2.3 1.32 4.16 1 3-.5 5-2.92 8.28-2.51 2.33.29 3.41 1.63 5.8.46a12 12 0 0 0 2-1.73c2-1.6 4.29-1.57 6.71-1.86a11.39 11.39 0 0 0 4.47-1c.61-.3 1.85-.55 1.89-.4C85.29 66.32 57.24 65.19 49.68 65c-10.04-.28-30.32-.68-31.84-13.57zm67.77-5.66c-.15.66-2 2.33-2.49 2.62-.69.41-1.81.84-2.56 1.22a17.22 17.22 0 0 1-8 1.86 6 6 0 0 0-3 .75c-1.09.62-1.66 1.9-2.68 2.53-2.43 1.5-4.29.12-6.75 0-4.51-.28-5.69 3.47-11 1.5-2.35-.87-3.27-1.76-6-1.2-3.2.66-5.1 1.73-8.33 0-1.32-.72-2.33-1.75-3.87-2a10.39 10.39 0 0 0-3.39.3c-2.3.27-4.68 1.18-6.53-.86-.57-.63-.88-1.47-1.39-2.14-2.24-3-7.29-4.63-3.24-8.91 2.89 6.3 12.1 9.71 18.53 10.6 6.88 1 13.88.33 20.75-.36a65.37 65.37 0 0 0 9.24-1.42c3.38-.84 6.34-2.52 9.61-3.65 2.71-.94 6.76-2.62 8.8-5.25 1.32.98 2.61 3.06 2.3 4.41zM39 39.88a1.13 1.13 0 0 1 0 2.25 1.13 1.13 0 0 1 0-2.25zm-7-9a1.13 1.13 0 0 1 0 2.25 1.13 1.13 0 0 1 0-2.25zm13-4a1.13 1.13 0 0 1 0 2.25 1.13 1.13 0 0 1 0-2.25zm9 7a1.13 1.13 0 0 1 0 2.25 1.13 1.13 0 0 1 0-2.25zm6-6a1.13 1.13 0 0 1 0 2.25 1.13 1.13 0 0 1 0-2.25zm8 5a1.13 1.13 0 0 1 0 2.25 1.13 1.13 0 0 1 0-2.25zm-7 6a1.13 1.13 0 0 1 0 2.25 1.13 1.13 0 0 1 0-2.25zm11-1a1.13 1.13 0 0 1 0 2.25 1.13 1.13 0 0 1 0-2.25zm1-9a1.13 1.13 0 0 1 0 2.25 1.13 1.13 0 0 1 0-2.25zm-36-5a1.13 1.13 0 0 1 0 2.25 1.13 1.13 0 0 1 0-2.25zm-10 3a1.13 1.13 0 0 1 0 2.25 1.13 1.13 0 0 1 0-2.25zm24-3a1.13 1.13 0 0 1 0 2.25 1.13 1.13 0 0 1 0-2.25zm-27 12a1.13 1.13 0 0 1 0 2.25 1.13 1.13 0 0 1 0-2.25zm7 4a1.13 1.13 0 0 1 0 2.25 1.13 1.13 0 0 1 0-2.25zm11-7a1.13 1.13 0 0 1 0 2.25 1.13 1.13 0 0 1 0-2.25zm5 11.58a1.13 1.13 0 0 1 0-2.25 1.13 1.13 0 0 1 0 2.25z" />
  </g> <!---->
</svg>